<?xml version="1.0" standalone="no"?>
<!DOCTYPE svg PUBLIC "-//W3C//DTD SVG 20010904//EN"
 "http://www.w3.org/TR/2001/REC-SVG-20010904/DTD/svg10.dtd">
<svg version="1.0" xmlns="http://www.w3.org/2000/svg"
 width="408.000000pt" height="351.000000pt" viewBox="0 0 408.000000 351.000000"
 preserveAspectRatio="xMidYMid meet">

<g transform="translate(0.000000,351.000000) scale(0.100000,-0.100000)"
fill="#000000" stroke="none">
<path d="M4033 3493 c9 -2 25 -2 35 0 9 3 1 5 -18 5 -19 0 -27 -2 -17 -5z"/>
<path d="M4043 3263 c9 -2 23 -2 30 0 6 3 -1 5 -18 5 -16 0 -22 -2 -12 -5z"/>
<path d="M4043 3033 c9 -2 23 -2 30 0 6 3 -1 5 -18 5 -16 0 -22 -2 -12 -5z"/>
<path d="M4043 2793 c9 -2 23 -2 30 0 6 3 -1 5 -18 5 -16 0 -22 -2 -12 -5z"/>
<path d="M3992 2338 c5 -15 28 -18 29 -3 0 6 -7 12 -17 13 -10 3 -15 -1 -12
-10z"/>
<path d="M4043 2103 c9 -2 23 -2 30 0 6 3 -1 5 -18 5 -16 0 -22 -2 -12 -5z"/>
<path d="M4 1935 c-12 -31 4 -44 58 -47 l53 -3 5 -160 c5 -148 6 -160 24 -163
38 -8 46 23 46 179 l0 148 53 3 c48 3 52 5 52 28 l0 25 -143 3 c-120 2 -143 0
-148 -13z"/>
<path d="M582 1938 c-6 -6 -12 -20 -12 -29 0 -9 -7 -22 -15 -29 -20 -17 -10
-30 24 -30 24 0 36 -11 75 -67 l47 -68 -115 -3 c-89 -2 -115 -6 -120 -17 -5
-13 14 -15 124 -15 l129 0 33 -44 c18 -25 39 -47 46 -50 21 -9 42 5 42 28 -1
26 -211 330 -231 334 -8 1 -20 -3 -27 -10z"/>
<path d="M1075 1936 c-42 -18 -92 -73 -106 -114 -19 -58 -7 -137 28 -180 49
-61 97 -83 169 -80 95 6 165 68 113 101 -12 8 -24 5 -47 -11 -70 -50 -179 -14
-201 65 -31 113 78 205 182 154 48 -23 72 -26 82 -11 12 19 -6 47 -44 68 -45
25 -128 29 -176 8z"/>
<path d="M1501 1931 c-7 -11 -11 -85 -11 -178 0 -169 7 -199 46 -191 16 3 19
13 22 71 l3 68 77 -71 c80 -73 114 -86 120 -44 2 16 -17 40 -74 92 l-78 71 72
75 c40 42 72 83 72 91 0 8 -10 19 -21 26 -19 10 -29 4 -91 -60 -38 -39 -71
-71 -73 -71 -2 0 -5 30 -7 68 -3 60 -5 67 -25 70 -14 2 -26 -4 -32 -17z"/>
<path d="M4043 1873 c9 -2 23 -2 30 0 6 3 -1 5 -18 5 -16 0 -22 -2 -12 -5z"/>
<path d="M527 1823 c-16 -16 -5 -33 21 -33 27 0 52 15 52 32 0 10 -64 11 -73
1z"/>
<path d="M497 1763 c-16 -16 -5 -33 21 -33 27 0 52 15 52 32 0 10 -64 11 -73
1z"/>
<path d="M436 1635 c-4 -12 3 -15 34 -15 29 0 40 4 40 15 0 10 -10 15 -34 15
-21 0 -36 -6 -40 -15z"/>
<path d="M4043 1633 c9 -2 23 -2 30 0 6 3 -1 5 -18 5 -16 0 -22 -2 -12 -5z"/>
<path d="M422 1578 c7 -20 54 -22 61 -4 5 13 -1 16 -29 16 -24 0 -34 -4 -32
-12z"/>
<path d="M4043 1403 c9 -2 23 -2 30 0 6 3 -1 5 -18 5 -16 0 -22 -2 -12 -5z"/>
<path d="M4043 1173 c9 -2 23 -2 30 0 6 3 -1 5 -18 5 -16 0 -22 -2 -12 -5z"/>
<path d="M4043 713 c9 -2 23 -2 30 0 6 3 -1 5 -18 5 -16 0 -22 -2 -12 -5z"/>
<path d="M4043 473 c9 -2 23 -2 30 0 6 3 -1 5 -18 5 -16 0 -22 -2 -12 -5z"/>
<path d="M4043 243 c9 -2 23 -2 30 0 6 3 -1 5 -18 5 -16 0 -22 -2 -12 -5z"/>
<path d="M4033 13 c9 -2 25 -2 35 0 9 3 1 5 -18 5 -19 0 -27 -2 -17 -5z"/>
</g>
</svg>
